# Blender 3.4.1
# www.blender.org
mtllib ufo.mtl
o ufo
v 0.000000 -0.281596 -1.592945
v 0.000000 0.281596 -1.118078
v 0.310768 -0.281596 -1.562337
v 0.218126 0.281596 -1.096595
v 0.609594 -0.281596 -1.471689
v 0.427870 0.281596 -1.032970
v 0.884993 -0.281596 -1.324485
v 0.621171 0.281596 -0.929648
v 1.126382 -0.281596 -1.126382
v 0.790601 0.281596 -0.790601
v 1.324485 -0.281596 -0.884993
v 0.929648 0.281596 -0.621171
v 1.471689 -0.281596 -0.609594
v 1.032970 0.281596 -0.427870
v 1.562337 -0.281596 -0.310768
v 1.096595 0.281596 -0.218126
v 1.592945 -0.281596 -0.000000
v 1.118078 0.281596 0.000000
v 1.562337 -0.281596 0.310768
v 1.096595 0.281596 0.218126
v 1.471689 -0.281596 0.609594
v 1.032970 0.281596 0.427870
v 1.324485 -0.281596 0.884993
v 0.929648 0.281596 0.621171
v 1.126382 -0.281596 1.126382
v 0.790601 0.281596 0.790601
v 0.884993 -0.281596 1.324485
v 0.621171 0.281596 0.929648
v 0.609594 -0.281596 1.471689
v 0.427870 0.281596 1.032970
v 0.310768 -0.281596 1.562337
v 0.218126 0.281596 1.096595
v 0.000000 -0.281596 1.592945
v 0.000000 0.281596 1.118078
v -0.310768 -0.281596 1.562337
v -0.218126 0.281596 1.096595
v -0.609594 -0.281596 1.471689
v -0.427870 0.281596 1.032970
v -0.884993 -0.281596 1.324485
v -0.621171 0.281596 0.929648
v -1.126382 -0.281596 1.126382
v -0.790601 0.281596 0.790601
v -1.324485 -0.281596 0.884993
v -0.929648 0.281596 0.621171
v -1.471689 -0.281596 0.609594
v -1.032970 0.281596 0.427870
v -1.562337 -0.281596 0.310768
v -1.096595 0.281596 0.218126
v -1.592945 -0.281596 -0.000000
v -1.118078 0.281596 0.000000
v -1.562337 -0.281596 -0.310768
v -1.096595 0.281596 -0.218126
v -1.471689 -0.281596 -0.609594
v -1.032970 0.281596 -0.427870
v -1.324485 -0.281596 -0.884993
v -0.929648 0.281596 -0.621171
v -1.126382 -0.281596 -1.126382
v -0.790601 0.281596 -0.790601
v -0.884993 -0.281596 -1.324485
v -0.621171 0.281596 -0.929648
v -0.609594 -0.281596 -1.471689
v -0.427870 0.281596 -1.032970
v -0.310768 -0.281596 -1.562337
v -0.218126 0.281596 -1.096595
v 0.000000 0.304255 -0.548809
v 0.000000 0.680098 -0.046372
v 0.107067 0.304255 -0.538264
v 0.009047 0.680098 -0.045481
v 0.210020 0.304255 -0.507034
v 0.017746 0.680098 -0.042842
v 0.304902 0.304255 -0.456318
v 0.025763 0.680098 -0.038557
v 0.388067 0.304255 -0.388067
v 0.032790 0.680098 -0.032790
v 0.456318 0.304255 -0.304902
v 0.038557 0.680098 -0.025763
v 0.507034 0.304255 -0.210020
v 0.042842 0.680098 -0.017746
v 0.538264 0.304255 -0.107067
v 0.045481 0.680098 -0.009047
v 0.548809 0.304255 -0.000000
v 0.046372 0.680098 0.000000
v 0.538264 0.304255 0.107067
v 0.045481 0.680098 0.009047
v 0.507034 0.304255 0.210020
v 0.042842 0.680098 0.017746
v 0.456318 0.304255 0.304902
v 0.038557 0.680098 0.025763
v 0.388067 0.304255 0.388067
v 0.032790 0.680098 0.032790
v 0.304902 0.304255 0.456318
v 0.025763 0.680098 0.038557
v 0.210020 0.304255 0.507034
v 0.017746 0.680098 0.042842
v 0.107067 0.304255 0.538264
v 0.009047 0.680098 0.045481
v 0.000000 0.304255 0.548809
v 0.000000 0.680098 0.046372
v -0.107067 0.304255 0.538264
v -0.009047 0.680098 0.045481
v -0.210020 0.304255 0.507034
v -0.017746 0.680098 0.042842
v -0.304902 0.304255 0.456318
v -0.025763 0.680098 0.038557
v -0.388067 0.304255 0.388067
v -0.032790 0.680098 0.032790
v -0.456318 0.304255 0.304902
v -0.038557 0.680098 0.025763
v -0.507034 0.304255 0.210020
v -0.042842 0.680098 0.017746
v -0.538264 0.304255 0.107067
v -0.045481 0.680098 0.009047
v -0.548809 0.304255 -0.000000
v -0.046372 0.680098 0.000000
v -0.538264 0.304255 -0.107067
v -0.045481 0.680098 -0.009047
v -0.507034 0.304255 -0.210020
v -0.042842 0.680098 -0.017746
v -0.456318 0.304255 -0.304902
v -0.038557 0.680098 -0.025763
v -0.388067 0.304255 -0.388067
v -0.032790 0.680098 -0.032790
v -0.304902 0.304255 -0.456318
v -0.025763 0.680098 -0.038557
v -0.210020 0.304255 -0.507034
v -0.017746 0.680098 -0.042842
v -0.107067 0.304255 -0.538264
v -0.009047 0.680098 -0.045481
vn 0.0751 0.6428 -0.7624
vn 0.2224 0.6428 -0.7331
vn 0.3611 0.6428 -0.6756
vn 0.4860 0.6428 -0.5922
vn 0.5922 0.6428 -0.4860
vn 0.6756 0.6428 -0.3611
vn 0.7331 0.6428 -0.2224
vn 0.7624 0.6428 -0.0751
vn 0.7624 0.6428 0.0751
vn 0.7331 0.6428 0.2224
vn 0.6756 0.6428 0.3611
vn 0.5922 0.6428 0.4860
vn 0.4860 0.6428 0.5922
vn 0.3611 0.6428 0.6756
vn 0.2224 0.6428 0.7331
vn 0.0751 0.6428 0.7624
vn -0.0751 0.6428 0.7624
vn -0.2224 0.6428 0.7331
vn -0.3611 0.6428 0.6756
vn -0.4860 0.6428 0.5922
vn -0.5922 0.6428 0.4860
vn -0.6756 0.6428 0.3611
vn -0.7331 0.6428 0.2224
vn -0.7624 0.6428 0.0751
vn -0.7624 0.6428 -0.0751
vn -0.7331 0.6428 -0.2224
vn -0.6756 0.6428 -0.3611
vn -0.5922 0.6428 -0.4860
vn -0.4860 0.6428 -0.5922
vn -0.3611 0.6428 -0.6756
vn -0.2224 0.6428 -0.7331
vn -0.0751 0.6428 -0.7624
vn -0.0000 -1.0000 -0.0000
vn 0.0589 0.7994 -0.5980
vn 0.1744 0.7994 -0.5750
vn 0.2832 0.7994 -0.5299
vn 0.3812 0.7994 -0.4645
vn 0.4645 0.7994 -0.3812
vn 0.5299 0.7994 -0.2832
vn 0.5750 0.7994 -0.1744
vn 0.5980 0.7994 -0.0589
vn 0.5980 0.7994 0.0589
vn 0.5750 0.7994 0.1744
vn 0.5299 0.7994 0.2832
vn 0.4645 0.7994 0.3812
vn 0.3812 0.7994 0.4645
vn 0.2832 0.7994 0.5299
vn 0.1744 0.7994 0.5750
vn 0.0589 0.7994 0.5980
vn -0.0589 0.7994 0.5980
vn -0.1744 0.7994 0.5750
vn -0.2832 0.7994 0.5299
vn -0.3812 0.7994 0.4645
vn -0.4645 0.7994 0.3812
vn -0.5299 0.7994 0.2832
vn -0.5750 0.7994 0.1744
vn -0.5980 0.7994 0.0589
vn -0.5980 0.7994 -0.0589
vn -0.5750 0.7994 -0.1744
vn -0.5299 0.7994 -0.2832
vn -0.4645 0.7994 -0.3812
vn -0.3812 0.7994 -0.4645
vn -0.2832 0.7994 -0.5299
vn -0.0000 1.0000 -0.0000
vn -0.1744 0.7994 -0.5750
vn -0.0589 0.7994 -0.5980
vn -0.0382 0.9992 -0.0116
vn -0.0398 0.9992 -0.0039
vn -0.0398 0.9992 0.0039
vn -0.0382 0.9992 0.0116
vn -0.0352 0.9992 0.0188
vn -0.0309 0.9992 0.0254
vn -0.0254 0.9992 0.0309
vn -0.0188 0.9992 0.0352
vn -0.0116 0.9992 0.0382
vn -0.0039 0.9992 0.0398
vn 0.0039 0.9992 0.0398
vn 0.0116 0.9992 0.0382
vn 0.0188 0.9992 0.0352
vn 0.0254 0.9992 0.0309
vn 0.0309 0.9992 0.0254
vn 0.0352 0.9992 0.0188
vn 0.0382 0.9992 0.0116
vn 0.0398 0.9992 0.0039
vn 0.0398 0.9992 -0.0039
vn 0.0382 0.9992 -0.0116
vn 0.0352 0.9992 -0.0188
vn 0.0309 0.9992 -0.0254
vn 0.0254 0.9992 -0.0309
vn 0.0188 0.9992 -0.0352
vn 0.0116 0.9992 -0.0382
vn 0.0039 0.9992 -0.0398
vn -0.0039 0.9992 -0.0398
vn -0.0116 0.9992 -0.0382
vn -0.0188 0.9992 -0.0352
vn -0.0254 0.9992 -0.0309
vn -0.0309 0.9992 -0.0254
vn -0.0352 0.9992 -0.0188
vt 0.009633 0.476148
vt 0.000000 0.183393
vt 0.299307 0.517487
vt 0.406859 0.843151
vt 0.004351 0.515150
vt 0.007818 0.144091
vt 0.295600 0.544862
vt 0.406859 0.871277
vt 0.001098 0.555089
vt 0.023153 0.107069
vt 0.293317 0.572896
vt 0.412346 0.898863
vt 0.000000 0.594432
vt 0.045416 0.073751
vt 0.292546 0.600510
vt 0.423109 0.924849
vt 0.001098 0.631666
vt 0.073751 0.045415
vt 0.293317 0.626645
vt 0.438735 0.948235
vt 0.004351 0.665360
vt 0.107069 0.023153
vt 0.295600 0.650294
vt 0.458624 0.968123
vt 0.009633 0.694219
vt 0.144091 0.007818
vt 0.299307 0.670550
vt 0.482010 0.983749
vt 0.016742 0.717135
vt 0.183393 0.000000
vt 0.304297 0.686635
vt 0.507995 0.994513
vt 0.025404 0.733226
vt 0.440890 0.000000
vt 0.223465 0.000000
vt 0.310377 0.697929
vt 0.723500 0.050860
vt 0.535581 1.000000
vt 0.431359 0.015592
vt 0.262767 0.007818
vt 0.716810 0.061804
vt 0.563708 1.000000
vt 0.423005 0.038084
vt 0.299789 0.023153
vt 0.710947 0.077591
vt 0.591293 0.994513
vt 0.416149 0.066610
vt 0.333108 0.045416
vt 0.706135 0.097614
vt 0.617279 0.983749
vt 0.411055 0.100075
vt 0.361443 0.073751
vt 0.702559 0.121103
vt 0.640665 0.968123
vt 0.407918 0.137193
vt 0.383706 0.107069
vt 0.700357 0.147155
vt 0.660553 0.948235
vt 0.406859 0.176537
vt 0.399041 0.144091
vt 0.699614 0.174770
vt 0.676180 0.924849
vt 0.407918 0.216595
vt 0.406859 0.183393
vt 0.700357 0.202887
vt 0.686943 0.898863
vt 0.411055 0.255828
vt 0.406859 0.223465
vt 0.702559 0.230424
vt 0.692430 0.871277
vt 0.416149 0.292728
vt 0.399041 0.262767
vt 0.706135 0.256324
vt 0.692430 0.843151
vt 0.423005 0.325877
vt 0.383706 0.299789
vt 0.710947 0.279591
vt 0.686943 0.815565
vt 0.431359 0.354001
vt 0.361443 0.333108
vt 0.716810 0.299331
vt 0.676180 0.789580
vt 0.440890 0.376020
vt 0.431359 0.376020
vt 0.333108 0.361443
vt 0.723500 0.314786
vt 0.716810 0.422232
vt 0.660553 0.766194
vt 0.423005 0.398511
vt 0.299789 0.383706
vt 0.710947 0.438019
vt 0.640665 0.746305
vt 0.416149 0.427038
vt 0.262767 0.399041
vt 0.706135 0.458041
vt 0.617279 0.730679
vt 0.411055 0.460503
vt 0.223465 0.406859
vt 0.702559 0.481530
vt 0.591293 0.719916
vt 0.407918 0.497620
vt 0.183393 0.406859
vt 0.700357 0.507583
vt 0.563708 0.714428
vt 0.406859 0.536964
vt 0.144091 0.399041
vt 0.699614 0.535198
vt 0.535581 0.714428
vt 0.407918 0.577022
vt 0.107069 0.383706
vt 0.700357 0.563314
vt 0.507995 0.719916
vt 0.411055 0.616255
vt 0.073751 0.361443
vt 0.702559 0.590852
vt 0.482010 0.730679
vt 0.416149 0.653155
vt 0.045415 0.333108
vt 0.706135 0.616752
vt 0.458624 0.746305
vt 0.423005 0.686304
vt 0.023153 0.299789
vt 0.710947 0.640019
vt 0.438735 0.766194
vt 0.431359 0.714428
vt 0.025404 0.406859
vt 0.007818 0.262767
vt 0.716810 0.659759
vt 0.310377 0.468854
vt 0.423109 0.789580
vt 0.016742 0.439582
vt 0.000000 0.223465
vt 0.304297 0.491822
vt 0.412346 0.815565
vt 0.798808 0.583640
vt 0.723500 0.267512
vt 0.479558 0.850311
vt 0.310604 0.414508
vt 0.830347 0.783062
vt 0.785509 0.586286
vt 0.726193 0.253972
vt 0.479558 0.864117
vt 0.829223 0.783285
vt 0.311051 0.415586
vt 0.772131 0.589697
vt 0.731477 0.241217
vt 0.482251 0.877658
vt 0.828092 0.783573
vt 0.311699 0.416556
vt 0.759189 0.593743
vt 0.739147 0.229738
vt 0.487535 0.890413
vt 0.826999 0.783915
vt 0.312524 0.417381
vt 0.747180 0.598270
vt 0.748909 0.219976
vt 0.495205 0.901892
vt 0.825984 0.784298
vt 0.313494 0.418029
vt 0.736566 0.603101
vt 0.760388 0.212306
vt 0.504967 0.911654
vt 0.825087 0.784706
vt 0.314572 0.418475
vt 0.727754 0.608053
vt 0.773143 0.207022
vt 0.516446 0.919324
vt 0.824343 0.785124
vt 0.315716 0.418703
vt 0.721083 0.612935
vt 0.786683 0.204329
vt 0.529201 0.924607
vt 0.823779 0.785537
vt 0.316882 0.418703
vt 0.716810 0.617559
vt 0.716810 0.540289
vt 0.800489 0.204329
vt 0.542741 0.927301
vt 0.823418 0.785928
vt 0.829632 0.376020
vt 0.318026 0.418475
vt 0.720908 0.545069
vt 0.814030 0.207022
vt 0.556547 0.927301
vt 0.829978 0.376424
vt 0.319104 0.418029
vt 0.727392 0.550197
vt 0.826785 0.212306
vt 0.570088 0.924607
vt 0.830526 0.376857
vt 0.320074 0.417381
vt 0.736012 0.555474
vt 0.838264 0.219976
vt 0.582843 0.919324
vt 0.831255 0.377303
vt 0.320899 0.416556
vt 0.746439 0.560699
vt 0.848026 0.229738
vt 0.594322 0.911654
vt 0.832136 0.377744
vt 0.321547 0.415586
vt 0.758270 0.565671
vt 0.855696 0.241217
vt 0.604084 0.901892
vt 0.833135 0.378164
vt 0.321993 0.414508
vt 0.771052 0.570198
vt 0.860979 0.253972
vt 0.611754 0.890413
vt 0.834215 0.378547
vt 0.322221 0.413364
vt 0.784293 0.574106
vt 0.863673 0.267512
vt 0.617037 0.877658
vt 0.835334 0.378877
vt 0.322221 0.412197
vt 0.797484 0.577246
vt 0.863673 0.281318
vt 0.619731 0.864117
vt 0.836449 0.379143
vt 0.321993 0.411053
vt 0.810119 0.579497
vt 0.860979 0.294859
vt 0.619731 0.850311
vt 0.837516 0.379333
vt 0.321547 0.409975
vt 0.821711 0.580772
vt 0.855696 0.307614
vt 0.617037 0.836771
vt 0.838496 0.379440
vt 0.320899 0.409006
vt 0.831816 0.581022
vt 0.848026 0.319093
vt 0.611754 0.824016
vt 0.839350 0.379462
vt 0.320074 0.408181
vt 0.840045 0.580238
vt 0.723500 0.177124
vt 0.838264 0.328855
vt 0.604084 0.812537
vt 0.840045 0.379395
vt 0.818182 0.000000
vt 0.319104 0.407533
vt 0.730387 0.181695
vt 0.826785 0.336525
vt 0.594322 0.802775
vt 0.818764 0.000386
vt 0.318026 0.407086
vt 0.739417 0.186238
vt 0.814030 0.341808
vt 0.582843 0.795104
vt 0.819527 0.000770
vt 0.316882 0.406859
vt 0.750241 0.190579
vt 0.800489 0.344502
vt 0.570088 0.789821
vt 0.820442 0.001137
vt 0.315716 0.406859
vt 0.762445 0.194551
vt 0.786683 0.344502
vt 0.556547 0.787128
vt 0.821473 0.001472
vt 0.314571 0.407086
vt 0.775558 0.198000
vt 0.773143 0.341808
vt 0.542741 0.787128
vt 0.822581 0.001764
vt 0.313494 0.407533
vt 0.789078 0.200795
vt 0.760388 0.336525
vt 0.529201 0.789821
vt 0.823724 0.002000
vt 0.312524 0.408181
vt 0.802485 0.202828
vt 0.748909 0.328855
vt 0.516446 0.795104
vt 0.824856 0.002172
vt 0.311699 0.409006
vt 0.815263 0.204021
vt 0.739147 0.319093
vt 0.504967 0.802775
vt 0.825936 0.002273
vt 0.311051 0.409975
vt 0.826921 0.204329
vt 0.833257 0.581150
vt 0.731477 0.307614
vt 0.495205 0.812537
vt 0.826921 0.002299
vt 0.833257 0.782851
vt 0.310604 0.411053
vt 0.823150 0.581022
vt 0.726193 0.294859
vt 0.487535 0.824016
vt 0.310377 0.412197
vt 0.832403 0.782840
vt 0.811518 0.581863
vt 0.723500 0.281318
vt 0.482251 0.836771
vt 0.310377 0.413364
vt 0.831420 0.782911
s 0
usemtl Material.001
f 1/1/1 2/3/1 4/7/1 3/5/1
f 3/5/2 4/7/2 6/11/2 5/9/2
f 5/9/3 6/11/3 8/15/3 7/13/3
f 7/13/4 8/15/4 10/19/4 9/17/4
f 9/17/5 10/19/5 12/23/5 11/21/5
f 11/21/6 12/23/6 14/27/6 13/25/6
f 13/25/7 14/27/7 16/31/7 15/29/7
f 15/29/8 16/31/8 18/36/8 17/33/8
f 17/34/9 18/37/9 20/41/9 19/39/9
f 19/39/10 20/41/10 22/45/10 21/43/10
f 21/43/11 22/45/11 24/49/11 23/47/11
f 23/47/12 24/49/12 26/53/12 25/51/12
f 25/51/13 26/53/13 28/57/13 27/55/13
f 27/55/14 28/57/14 30/61/14 29/59/14
f 29/59/15 30/61/15 32/65/15 31/63/15
f 31/63/16 32/65/16 34/69/16 33/67/16
f 33/67/17 34/69/17 36/73/17 35/71/17
f 35/71/18 36/73/18 38/77/18 37/75/18
f 37/75/19 38/77/19 40/81/19 39/79/19
f 39/79/20 40/81/20 42/86/20 41/83/20
f 41/84/21 42/87/21 44/91/21 43/89/21
f 43/89/22 44/91/22 46/95/22 45/93/22
f 45/93/23 46/95/23 48/99/23 47/97/23
f 47/97/24 48/99/24 50/103/24 49/101/24
f 49/101/25 50/103/25 52/107/25 51/105/25
f 51/105/26 52/107/26 54/111/26 53/109/26
f 53/109/27 54/111/27 56/115/27 55/113/27
f 55/113/28 56/115/28 58/119/28 57/117/28
f 57/117/29 58/119/29 60/123/29 59/121/29
f 59/121/30 60/123/30 62/128/30 61/125/30
f 61/126/31 62/129/31 64/133/31 63/131/31
f 63/131/32 64/133/32 2/3/32 1/1/32
f 1/2/33 3/6/33 5/10/33 7/14/33 9/18/33 11/22/33 13/26/33 15/30/33 17/35/33 19/40/33 21/44/33 23/48/33 25/52/33 27/56/33 29/60/33 31/64/33 33/68/33 35/72/33 37/76/33 39/80/33 41/85/33 43/90/33 45/94/33 47/98/33 49/102/33 51/106/33 53/110/33 55/114/33 57/118/33 59/122/33 61/127/33 63/132/33
f 65/135/34 66/139/34 68/143/34 67/140/34
f 67/140/35 68/143/35 70/148/35 69/145/35
f 69/145/36 70/148/36 72/153/36 71/150/36
f 71/150/37 72/153/37 74/158/37 73/155/37
f 73/155/38 74/158/38 76/163/38 75/160/38
f 75/160/39 76/163/39 78/168/39 77/165/39
f 77/165/40 78/168/40 80/173/40 79/170/40
f 79/170/41 80/173/41 82/179/41 81/175/41
f 81/176/42 82/180/42 84/185/42 83/182/42
f 83/182/43 84/185/43 86/190/43 85/187/43
f 85/187/44 86/190/44 88/195/44 87/192/44
f 87/192/45 88/195/45 90/200/45 89/197/45
f 89/197/46 90/200/46 92/205/46 91/202/46
f 91/202/47 92/205/47 94/210/47 93/207/47
f 93/207/48 94/210/48 96/215/48 95/212/48
f 95/212/49 96/215/49 98/220/49 97/217/49
f 97/217/50 98/220/50 100/225/50 99/222/50
f 99/222/51 100/225/51 102/230/51 101/227/51
f 101/227/52 102/230/52 104/235/52 103/232/52
f 103/232/53 104/235/53 106/241/53 105/237/53
f 105/238/54 106/242/54 108/247/54 107/244/54
f 107/244/55 108/247/55 110/252/55 109/249/55
f 109/249/56 110/252/56 112/257/56 111/254/56
f 111/254/57 112/257/57 114/262/57 113/259/57
f 113/259/58 114/262/58 116/267/58 115/264/58
f 115/264/59 116/267/59 118/272/59 117/269/59
f 117/269/60 118/272/60 120/277/60 119/274/60
f 119/274/61 120/277/61 122/282/61 121/279/61
f 121/279/62 122/282/62 124/288/62 123/284/62
f 123/285/63 124/289/63 126/295/63 125/291/63
f 68/144/64 66/138/64 128/299/64 126/294/64 124/290/64 122/283/64 120/278/64 118/273/64 116/268/64 114/263/64 112/258/64 110/253/64 108/248/64 106/243/64 104/236/64 102/231/64 100/226/64 98/221/64 96/216/64 94/211/64 92/206/64 90/201/64 88/196/64 86/191/64 84/186/64 82/181/64 80/174/64 78/169/64 76/164/64 74/159/64 72/154/64 70/149/64
f 125/291/65 126/295/65 128/300/65 127/296/65
f 127/296/66 128/300/66 66/139/66 65/135/66
f 65/136/33 67/141/33 69/146/33 71/151/33 73/156/33 75/161/33 77/166/33 79/171/33 81/177/33 83/183/33 85/188/33 87/193/33 89/198/33 91/203/33 93/208/33 95/213/33 97/218/33 99/223/33 101/228/33 103/233/33 105/239/33 107/245/33 109/250/33 111/255/33 113/260/33 115/265/33 117/270/33 119/275/33 121/280/33 123/286/33 125/292/33 127/297/33
f 54/112/67 52/108/67 115/266/67 117/271/67
f 52/108/68 50/104/68 113/261/68 115/266/68
f 50/104/69 48/100/69 111/256/69 113/261/69
f 48/100/70 46/96/70 109/251/70 111/256/70
f 46/96/71 44/92/71 107/246/71 109/251/71
f 44/92/72 42/88/72 105/240/72 107/246/72
f 42/88/73 40/82/73 103/234/73 105/240/73
f 40/82/74 38/78/74 101/229/74 103/234/74
f 38/78/75 36/74/75 99/224/75 101/229/75
f 36/74/76 34/70/76 97/219/76 99/224/76
f 34/70/77 32/66/77 95/214/77 97/219/77
f 32/66/78 30/62/78 93/209/78 95/214/78
f 30/62/79 28/58/79 91/204/79 93/209/79
f 28/58/80 26/54/80 89/199/80 91/204/80
f 26/54/81 24/50/81 87/194/81 89/199/81
f 24/50/82 22/46/82 85/189/82 87/194/82
f 22/46/83 20/42/83 83/184/83 85/189/83
f 20/42/84 18/38/84 81/178/84 83/184/84
f 18/38/85 16/32/85 79/172/85 81/178/85
f 16/32/86 14/28/86 77/167/86 79/172/86
f 14/28/87 12/24/87 75/162/87 77/167/87
f 12/24/88 10/20/88 73/157/88 75/162/88
f 10/20/89 8/16/89 71/152/89 73/157/89
f 8/16/90 6/12/90 69/147/90 71/152/90
f 6/12/91 4/8/91 67/142/91 69/147/91
f 4/8/92 2/4/92 65/137/92 67/142/92
f 2/4/93 64/134/93 127/298/93 65/137/93
f 64/134/94 62/130/94 125/293/94 127/298/94
f 62/130/95 60/124/95 123/287/95 125/293/95
f 60/124/96 58/120/96 121/281/96 123/287/96
f 58/120/97 56/116/97 119/276/97 121/281/97
f 56/116/98 54/112/98 117/271/98 119/276/98
