# Blender 3.4.1
# www.blender.org
mtllib katana.mtl
o Плоскость
v -0.008206 0.173699 0.026667
v -0.008206 0.166918 0.031878
v -0.003195 0.171288 0.031719
v -0.008206 0.176309 0.004751
v -0.008206 0.177822 0.014774
v -0.008206 0.639085 0.005484
v -0.008206 0.640091 0.015507
v -0.008206 0.672321 -0.027710
v -0.005700 0.667795 -0.032720
v -0.008206 0.675469 -0.027508
v -0.003195 0.683276 -0.032020
v -0.003195 0.642246 0.021376
v -0.008206 0.639971 0.018687
v -0.003195 0.638464 0.023724
v 0.007794 0.173699 0.026667
v 0.002784 0.171288 0.031719
v 0.007794 0.166918 0.031878
v 0.007794 0.177822 0.014774
v 0.007794 0.176309 0.004751
v 0.007794 0.640091 0.015507
v 0.007794 0.639085 0.005484
v 0.007794 0.667794 -0.033012
v 0.007794 0.672321 -0.027710
v 0.002784 0.683276 -0.032020
v 0.007794 0.675469 -0.027508
v 0.002784 0.642246 0.021376
v 0.002784 0.638464 0.023724
v 0.007794 0.639971 0.018687
v -0.004140 0.097120 0.104141
v -0.008206 0.097271 0.098609
v -0.008206 0.094858 0.092200
v -0.004140 0.093211 0.093757
v -0.008206 0.095543 0.039094
v -0.008206 0.092337 0.035256
v -0.004140 0.093918 0.038964
v -0.008206 0.093231 -0.035637
v -0.008206 0.096533 -0.039405
v -0.004140 0.094907 -0.039513
v -0.008206 0.096801 -0.078301
v -0.004140 0.095190 -0.080519
v -0.008206 0.100038 -0.083617
v -0.004140 0.100139 -0.088649
v -0.008206 0.103038 -0.077523
v -0.004140 0.104664 -0.079458
v -0.008206 0.103038 -0.038527
v -0.008206 0.106200 -0.032324
v -0.004140 0.104664 -0.038452
v -0.008206 0.105118 0.040125
v -0.008206 0.101767 0.046557
v -0.004140 0.103391 0.046741
v -0.008206 0.100680 0.091722
v -0.004140 0.102260 0.093757
v -0.006173 0.114955 0.034634
v -0.008206 0.111691 0.032143
v -0.008256 0.115604 -0.026501
v -0.008206 0.112340 -0.025579
v -0.004140 0.088827 -0.040220
v -0.008206 0.090401 -0.035967
v -0.004140 0.088686 -0.028908
v -0.008206 0.087010 -0.024730
v -0.008206 0.090311 -0.028788
v -0.004140 0.083313 -0.028554
v -0.008206 0.081608 -0.024472
v -0.008206 0.084866 -0.024589
v -0.008206 0.080629 0.027840
v -0.004140 0.082181 0.031894
v -0.008206 0.083888 0.027723
v -0.004140 0.087979 0.031541
v -0.008206 0.089605 0.031645
v -0.008206 0.086398 0.027570
v -0.004140 0.087979 0.040378
v -0.008206 0.089605 0.035907
v -0.004140 -0.072967 -0.027088
v -0.008206 -0.071399 -0.023037
v -0.004140 -0.073846 0.033019
v -0.008206 -0.072159 0.028941
v 0.007794 0.097271 0.098609
v 0.003729 0.097120 0.104141
v 0.003729 0.093211 0.093757
v 0.007794 0.094858 0.092200
v 0.003729 0.093918 0.038964
v 0.007794 0.092337 0.035256
v 0.007794 0.095543 0.039094
v 0.007794 0.093231 -0.035637
v 0.003729 0.094907 -0.039513
v 0.007794 0.096533 -0.039405
v 0.003729 0.095190 -0.080519
v 0.007794 0.096801 -0.078301
v 0.003729 0.100139 -0.088649
v 0.007794 0.100038 -0.083617
v 0.003729 0.104664 -0.079458
v 0.007794 0.103038 -0.077523
v 0.003729 0.104664 -0.038452
v 0.007794 0.106200 -0.032324
v 0.007794 0.103038 -0.038527
v 0.007794 0.105118 0.040125
v 0.003729 0.103391 0.046741
v 0.007794 0.101767 0.046557
v 0.003729 0.102260 0.093757
v 0.007794 0.100680 0.091722
v 0.007794 0.111691 0.032143
v 0.007794 0.114939 0.032719
v 0.007794 0.112340 -0.025579
v 0.005744 0.115601 -0.028194
v 0.007794 0.090401 -0.035967
v 0.003729 0.088827 -0.040220
v 0.007794 0.090311 -0.028788
v 0.007794 0.087010 -0.024730
v 0.003729 0.088686 -0.028908
v 0.007794 0.084866 -0.024589
v 0.007794 0.081608 -0.024472
v 0.003729 0.083313 -0.028554
v 0.007794 0.080629 0.027840
v 0.007794 0.083888 0.027723
v 0.003729 0.082181 0.031894
v 0.007794 0.086398 0.027570
v 0.007794 0.089605 0.031645
v 0.003729 0.087979 0.031541
v 0.007794 0.089605 0.035907
v 0.003729 0.087979 0.040378
v 0.007794 -0.071399 -0.023037
v 0.003728 -0.072967 -0.027088
v 0.007794 -0.072159 0.028941
v 0.003728 -0.073846 0.033019
vn -0.0000 0.0171 0.9999
vn -1.0000 -0.0000 -0.0000
vn -0.0543 0.7088 -0.7033
vn -0.0000 0.8962 0.4436
vn -0.0000 0.2316 0.9728
vn -0.0000 -0.0094 -1.0000
vn 1.0000 -0.0000 -0.0000
vn 0.9996 -0.0033 -0.0273
vn -0.0000 0.0609 0.9981
vn -0.0000 -0.0656 -0.9978
vn -0.0000 0.7929 0.6093
vn 0.0588 0.7455 0.6639
vn -0.0000 -1.0000 -0.0000
vn -0.0150 0.0534 -0.9985
vn -0.0000 -0.9999 -0.0129
vn 0.0637 0.0358 0.9973
vn -0.0000 0.0072 1.0000
vn -0.9996 -0.0009 -0.0291
vn -0.0000 0.1155 -0.9933
vn -0.0000 -0.9999 -0.0146
vn -0.0000 0.8972 -0.4417
vn -0.0000 -1.0000 -0.0069
vn -0.0000 0.9997 0.0241
vn -0.0000 1.0000 -0.0000
vn -0.0000 -0.8542 -0.5199
vn -0.0000 -0.9999 -0.0125
vn -0.4516 0.5437 0.7074
vn -0.5709 0.4330 0.6975
vn 0.4516 0.5437 0.7074
vn 0.5709 0.4330 0.6975
vn -0.9855 -0.1199 -0.1201
vn -0.7999 0.1359 -0.5846
vn -0.5662 0.6536 0.5022
vn -0.7071 0.0121 0.7070
vn 0.8920 0.2635 -0.3673
vn 0.5662 0.6536 0.5022
vn 0.7071 0.0121 0.7070
vn -0.0000 0.5274 0.8496
vn -0.0000 0.0365 0.9993
vn -0.0720 -0.0097 -0.9974
vn -0.2753 -0.7378 0.6164
vn -0.3033 -0.7166 -0.6281
vn -0.3287 0.8414 -0.4289
vn -0.3514 0.8303 0.4326
vn -0.3123 -0.7369 -0.5996
vn -0.7029 -0.0255 -0.7108
vn -0.7107 0.0251 0.7030
vn -0.2860 -0.7530 0.5926
vn 0.2753 -0.7378 0.6164
vn 0.3033 -0.7166 -0.6281
vn 0.3286 0.8414 -0.4289
vn 0.3514 0.8303 0.4326
vn 0.3123 -0.7369 -0.5996
vn 0.7029 -0.0255 -0.7108
vn 0.7107 0.0251 0.7030
vn 0.2860 -0.7530 0.5926
vn -0.4572 -0.8323 0.3133
vn -0.3715 -0.9283 -0.0120
vn -0.3714 -0.9284 -0.0064
vn -0.5283 -0.7253 -0.4415
vn -0.4946 0.7797 -0.3839
vn -0.3714 0.9285 -0.0000
vn -0.3719 0.9280 0.0223
vn -0.4954 0.7785 0.3853
vn -0.7862 0.4170 0.4561
vn -0.9580 0.2861 0.0199
vn -0.8650 0.2608 -0.4287
vn -0.7051 0.0819 -0.7044
vn -0.3715 -0.9284 -0.0116
vn -0.7065 -0.0465 -0.7062
vn -0.7066 0.0431 0.7063
vn -0.3714 -0.9285 -0.0000
vn -0.6989 0.1657 0.6958
vn -0.7071 -0.0066 -0.7071
vn -0.3716 -0.9283 -0.0136
vn -0.7071 0.0051 0.7071
vn 0.4572 -0.8323 0.3133
vn 0.3715 -0.9283 -0.0120
vn 0.3714 -0.9284 -0.0064
vn 0.5283 -0.7253 -0.4415
vn 0.4946 0.7797 -0.3839
vn 0.3714 0.9285 -0.0000
vn 0.3719 0.9280 0.0223
vn 0.4954 0.7785 0.3853
vn 0.8535 0.3138 0.4161
vn 0.9549 0.2967 -0.0132
vn 0.7909 0.3824 -0.4778
vn 0.7051 0.0819 -0.7044
vn 0.3715 -0.9284 -0.0116
vn 0.7065 -0.0465 -0.7062
vn 0.7066 0.0431 0.7063
vn 0.3714 -0.9285 -0.0000
vn 0.6989 0.1657 0.6958
vn 0.7071 -0.0066 -0.7071
vn 0.3716 -0.9283 -0.0136
vn 0.7071 0.0051 0.7071
vn -0.0000 -0.9359 0.3523
vt 0.685337 0.670494
vt 0.276461 0.326439
vt 0.942929 0.096292
vt 0.285667 0.317338
vt 0.685519 0.679752
vt 0.286702 0.323160
vt 0.674528 0.674034
vt 0.229322 0.330565
vt 0.251762 0.332245
vt 0.381464 0.940522
vt 0.403738 0.941534
vt 0.319592 0.985367
vt 0.307131 0.979587
vt 0.686710 0.020439
vt 0.321058 0.989510
vt 0.672744 0.000000
vt 0.692028 0.000011
vt 0.313682 1.000000
vt 0.417254 0.944247
vt 0.674628 0.057673
vt 0.685519 0.060437
vt 0.410663 0.941276
vt 0.421165 0.939189
vt 0.674709 0.062794
vt 0.625142 0.000000
vt 0.991655 0.111355
vt 0.973616 0.142634
vt 0.864149 0.003528
vt 0.980555 0.107814
vt 0.852979 0.000000
vt 0.661415 0.674041
vt 0.422026 0.068620
vt 0.907842 0.096433
vt 0.991655 0.102096
vt 0.994254 0.134698
vt 0.650427 0.679771
vt 0.650427 0.005650
vt 0.973593 0.150941
vt 0.831006 0.002005
vt 0.481330 0.081055
vt 0.994254 0.153636
vt 0.852979 0.000000
vt 0.561788 0.615533
vt 0.831005 0.612262
vt 0.984706 0.048264
vt 0.470974 0.691976
vt 0.852979 0.610926
vt 0.962725 0.046936
vt 0.554840 0.729929
vt 0.962725 0.003943
vt 0.907842 0.211639
vt 0.716317 0.020426
vt 0.650427 0.658820
vt 0.984706 0.000000
vt 0.896763 0.217677
vt 0.659631 0.000007
vt 0.705138 0.000000
vt 0.907842 0.232162
vt 0.973593 0.134698
vt 0.649392 0.662970
vt 0.896698 0.221834
vt 0.962725 0.145042
vt 0.984725 0.191622
vt 0.973593 0.195743
vt 0.661515 0.057680
vt 0.984725 0.196743
vt 0.852979 0.611239
vt 0.661596 0.062801
vt 0.554840 0.615318
vt 0.973593 0.194387
vt 0.962725 0.197855
vt 0.864149 0.613585
vt 0.877598 0.231187
vt 0.421164 0.223123
vt 0.733577 0.203051
vt 0.409130 0.223449
vt 0.394311 0.220469
vt 0.742496 0.209287
vt 0.397154 0.218295
vt 0.733577 0.208414
vt 0.996186 0.169936
vt 0.742496 0.237356
vt 0.278249 0.223034
vt 0.996186 0.173836
vt 0.268804 0.218928
vt 0.961755 0.231182
vt 0.987340 0.172074
vt 0.733577 0.237374
vt 0.277407 0.220942
vt 0.113861 0.222325
vt 1.000000 0.187408
vt 0.999757 0.191622
vt 0.106686 0.226795
vt 0.804342 0.203051
vt 0.795423 0.203057
vt 0.990847 0.189478
vt 0.804342 0.223602
vt 0.021604 0.228366
vt 0.795925 0.224723
vt 0.795423 0.224723
vt 0.016193 0.226358
vt 0.011015 0.232798
vt 0.795417 0.230949
vt 0.000000 0.233136
vt 0.025335 0.236562
vt 0.795925 0.237244
vt 0.978254 0.219508
vt 0.021597 0.238812
vt 0.769420 0.234976
vt 0.110723 0.235341
vt 0.769420 0.239368
vt 0.125334 0.239315
vt 0.695343 0.762630
vt 0.978254 0.197855
vt 0.760333 0.237082
vt 0.111386 0.237529
vt 0.831005 0.210584
vt 0.283622 0.235622
vt 0.831005 0.215451
vt 0.296615 0.231004
vt 0.867213 0.215141
vt 0.944497 0.231182
vt 0.822196 0.213322
vt 0.297518 0.233186
vt 0.395158 0.228158
vt 0.877598 0.238693
vt 0.944497 0.206310
vt 0.400098 0.230223
vt 0.864149 0.231187
vt 0.942638 0.164430
vt 0.274783 0.248783
vt 0.268282 0.244536
vt 0.685519 0.747791
vt 0.141144 0.251528
vt 0.142101 0.247197
vt 0.990847 0.181441
vt 0.829220 0.233112
vt 0.112219 0.218605
vt 1.000000 0.183667
vt 0.820096 0.230964
vt 0.804396 0.233112
vt 0.873320 0.002142
vt 0.864161 0.004203
vt 0.135720 0.213784
vt 0.864397 0.000000
vt 0.804341 0.230964
vt 0.127910 0.218262
vt 0.873303 0.009209
vt 0.134527 0.206656
vt 0.864149 0.011311
vt 0.864154 0.007022
vt 0.135331 0.210954
vt 0.248755 0.203728
vt 0.890574 0.204035
vt 0.258108 0.205694
vt 0.249560 0.208027
vt 0.890585 0.211639
vt 0.989473 0.057502
vt 0.259220 0.213346
vt 0.942939 0.236635
vt 0.998314 0.055360
vt 0.942921 0.234487
vt 0.260006 0.215440
vt 0.998314 0.059243
vt 0.250042 0.211341
vt 0.961755 0.239051
vt 0.923559 0.236635
vt 0.278571 0.213070
vt 0.933573 0.234487
vt 0.269339 0.215307
vt 0.873320 0.215072
vt 0.934021 0.234487
vt 0.087899 0.004934
vt 0.864166 0.212863
vt 0.942939 0.232396
vt 0.890585 0.000010
vt 0.934021 0.202715
vt 0.209817 0.000000
vt 0.942939 0.204921
vt 0.201467 0.002305
vt 0.930876 0.000000
vt 0.822459 0.205042
vt 0.984706 0.045349
vt 0.894855 0.231228
vt 0.831006 0.203051
vt 0.993596 0.047252
vt 0.716317 0.203051
vt 0.831006 0.210584
vt 0.989473 0.048264
vt 0.716317 0.208414
vt 0.944497 0.003295
vt 0.822459 0.209692
vt 0.980555 0.049138
vt 0.944497 0.231185
vt 0.716317 0.237374
vt 0.829220 0.240278
vt 0.989473 0.077224
vt 0.996403 0.153636
vt 0.962768 0.198308
vt 0.817575 0.239978
vt 0.980555 0.095121
vt 0.987340 0.155422
vt 0.944059 0.031353
vt 0.829220 0.237268
vt 0.980555 0.077206
vt 0.962726 0.093225
vt 0.962725 0.235763
vt 0.790367 0.240284
vt 0.980555 0.132576
vt 0.877598 0.233362
vt 0.973593 0.189480
vt 0.778163 0.203057
vt 0.778163 0.240284
vt 0.993624 0.000007
vt 0.868421 0.231187
vt 0.943538 0.072826
vt 0.778236 0.237247
vt 0.962725 0.134698
vt 0.984706 0.000000
vt 0.778163 0.224723
vt 0.778671 0.224726
vt 0.993624 0.021673
vt 0.996322 0.161505
vt 0.944497 0.093367
vt 0.984706 0.020551
vt 0.987340 0.162553
vt 0.778163 0.230952
vt 0.996322 0.169320
vt 0.905971 0.232162
vt 0.927097 0.096292
vt 0.987340 0.167663
vt 0.896699 0.233723
vt 0.778671 0.237247
vt 0.995514 0.219508
vt 0.905971 0.239862
vt 0.980555 0.134698
vt 0.910278 0.093185
vt 0.896699 0.238828
vt 0.989735 0.133618
vt 0.712597 0.762616
vt 0.995514 0.197855
vt 0.822196 0.217659
vt 0.980555 0.113044
vt 0.990101 0.219508
vt 0.943199 0.202715
vt 0.830936 0.215451
vt 0.962726 0.090104
vt 0.980185 0.222513
vt 0.907842 0.072600
vt 0.830936 0.219843
vt 0.989735 0.113025
vt 0.980555 0.093225
vt 0.943199 0.164430
vt 0.916867 0.239354
vt 0.962725 0.051820
vt 0.984769 0.035044
vt 0.884468 0.215072
vt 0.961757 0.231182
vt 0.907843 0.236577
vt 0.989719 0.077224
vt 0.993600 0.038531
vt 0.909492 0.027641
vt 0.916867 0.234487
vt 0.980555 0.048264
vt 0.980555 0.077318
vt 0.894855 0.238733
vt 0.961757 0.206310
vt 0.989719 0.102096
vt 0.993596 0.038531
vt 0.912626 0.003760
vt 0.980555 0.101211
vt 0.984706 0.039565
vt 0.907842 0.168959
vt 0.984706 0.025399
vt 0.742504 0.235073
vt 0.421165 0.000000
vt 0.894855 0.231187
vt 0.911933 0.164430
vt 0.993600 0.021672
vt 0.760333 0.235260
vt 0.909012 0.199451
vt 0.742496 0.204580
vt 0.978255 0.231358
vt 0.554840 0.000991
vt 0.716317 0.747831
vt 0.760333 0.203051
vt 0.990101 0.234915
vt 0.978255 0.235824
vt 0.877598 0.237102
vt 0.984725 0.195417
vt 0.973593 0.181443
vt 0.829220 0.237268
vt 0.868421 0.239223
vt 0.993644 0.197614
vt 0.978255 0.232031
vt 0.802525 0.240284
vt 0.984725 0.191622
vt 0.778163 0.203051
vt 0.987340 0.153636
vt 0.790367 0.237268
vt 0.989473 0.053027
vt 0.760334 0.205316
vt 0.890574 0.002134
vt 0.804396 0.237268
vt 0.802525 0.237247
vt 0.993644 0.191635
vt 0.998631 0.055360
vt 0.975605 0.153790
vt 0.748161 0.238408
vt 0.989473 0.050196
vt 0.822171 0.203051
vt 0.716317 0.000000
vt 0.760333 0.235260
vt 0.804342 0.203310
vt 0.944497 0.203990
vt 0.890557 0.009201
vt 0.760333 0.238462
vt 0.998631 0.048264
vt 0.953661 0.206310
vt 0.831005 0.001349
vt 0.966698 0.239171
vt 0.804342 0.230964
vt 0.953661 0.001727
vt 0.973593 0.181441
vt 0.977689 0.235824
vt 0.822171 0.230705
vt 0.987340 0.178899
vt 0.907832 0.204026
vt 0.978255 0.239171
vt 0.996404 0.181441
vt 0.962725 0.000000
vt 0.987340 0.181266
vt 0.996166 0.234915
vt 0.987340 0.175606
vt 0.760333 0.232946
vt 0.977987 0.200105
vt 0.996166 0.238798
vt 0.978255 0.239578
vt 0.778163 0.234976
vt 0.907843 0.211630
vt 0.942939 0.240792
vt 0.987173 0.236705
vt 0.996404 0.173836
vt 0.987173 0.239582
vt 0.977693 0.197855
vt 0.978255 0.237327
vt 0.987340 0.159043
vt 0.944497 0.239055
vt 0.923559 0.240792
vt 0.987173 0.234915
vt 0.996403 0.161505
vt 0.717045 0.201990
vt 0.944497 0.002000
vt 0.907842 0.232396
vt 0.890574 0.215063
vt 0.953661 0.000000
vt 0.916761 0.234487
vt 0.831005 0.203050
vt 0.907842 0.204921
vt 0.953661 0.201517
vt 0.907843 0.000000
vt 0.916761 0.202715
vt 0.962725 0.204026
s 0
usemtl Material.001
f 14/24/1 3/7/1 16/31/1 27/68/1
f 1/2/2 13/22/2 10/15/2 8/12/2 7/11/2 5/9/2
f 47/113/3 55/133/3 104/285/3 93/240/3
f 52/126/4 29/73/4 78/184/4 99/266/4
f 35/86/5 71/166/5 120/348/5 81/194/5
f 65/153/2 63/149/2 74/173/2 76/180/2
f 73/171/6 62/148/6 112/316/6 122/355/6
f 15/25/7 18/37/7 20/43/7 23/53/7 25/60/7 28/69/7
f 22/49/8 21/46/8 19/40/8 17/32/8 102/276/8 104/284/8
f 82/199/7 119/345/7 117/336/7 107/295/7 105/288/7 84/207/7
f 94/245/7 103/281/7 101/273/7 96/253/7
f 113/320/7 123/358/7 121/352/7 111/312/7
f 68/157/9 66/154/9 115/328/9 118/340/9
f 62/148/10 59/142/10 109/303/10 112/316/10
f 108/299/7 116/332/7 114/324/7 110/308/7
f 95/249/7 98/262/7 100/270/7 77/181/7 80/191/7 83/203/7 86/216/7 88/224/7 90/230/7 92/237/7
f 45/110/2 43/105/2 41/102/2 39/98/2 37/93/2 33/83/2 31/77/2 30/76/2 51/125/2 49/120/2
f 60/144/2 64/152/2 67/156/2 70/165/2
f 11/16/11 12/20/11 26/65/11 24/56/11
f 53/129/12 50/121/12 97/257/12 102/277/12
f 71/167/13 68/160/13 118/341/13 120/349/13
f 34/85/2 36/90/2 58/138/2 61/147/2 69/163/2 72/170/2
f 9/14/14 11/17/14 24/57/14 22/52/14
f 32/80/15 35/88/15 81/195/15 79/190/15
f 2/3/16 53/130/16 102/278/16 17/33/16
f 66/154/17 75/176/17 124/361/17 115/328/17
f 9/13/18 55/134/18 53/131/18 2/4/18 4/8/18 6/10/18
f 57/136/19 38/96/19 85/211/19 106/291/19
f 75/177/20 73/172/20 122/357/20 124/362/20
f 42/103/21 44/106/21 91/233/21 89/227/21
f 38/95/22 40/100/22 87/220/22 85/212/22
f 50/122/23 52/127/23 99/267/23 97/258/23
f 44/107/24 47/114/24 93/241/24 91/234/24
f 40/99/25 42/103/25 89/227/25 87/221/25
f 59/141/26 57/137/26 106/292/26 109/304/26
f 46/112/2 48/118/2 54/132/2 56/135/2
f 1/1/27 2/5/27 3/7/27
f 12/20/28 13/21/28 14/24/28
f 15/26/29 16/29/29 17/34/29
f 26/63/30 27/66/30 28/70/30
f 1/2/2 5/9/2 4/8/2 2/4/2
f 5/9/2 7/11/2 6/10/2 4/8/2
f 7/11/31 8/12/31 9/13/31 6/10/31
f 8/12/32 10/15/32 11/18/32 9/13/32
f 10/15/33 13/22/33 12/19/33 11/18/33
f 3/6/34 14/23/34 13/22/34 1/2/34
f 17/35/7 19/41/7 18/38/7 15/27/7
f 19/42/7 21/47/7 20/44/7 18/39/7
f 21/48/7 22/50/7 23/54/7 20/45/7
f 22/51/35 24/58/35 25/61/35 23/55/35
f 24/59/36 26/64/36 28/71/36 25/62/36
f 15/28/37 28/72/37 27/67/37 16/30/37
f 14/24/38 27/68/38 26/65/38 12/20/38
f 2/5/39 17/36/39 16/31/39 3/7/39
f 55/133/40 9/14/40 22/52/40 104/285/40
f 33/81/41 34/84/41 35/87/41
f 36/91/42 37/92/42 38/96/42
f 45/109/43 46/111/43 47/115/43
f 48/117/44 49/119/44 50/123/44
f 59/142/45 60/143/45 61/145/45
f 62/148/46 63/150/46 64/151/46
f 65/153/47 66/155/47 67/156/47
f 68/158/48 69/161/48 70/164/48
f 81/196/49 82/200/49 83/204/49
f 84/208/50 85/213/50 86/217/50
f 93/242/51 94/246/51 95/250/51
f 96/254/52 97/259/52 98/263/52
f 107/296/53 108/300/53 109/305/53
f 110/309/54 111/313/54 112/317/54
f 113/321/55 114/325/55 115/329/55
f 116/333/56 117/337/56 118/342/56
f 30/76/57 31/77/57 32/79/57 29/74/57
f 31/78/58 33/82/58 35/88/58 32/80/58
f 33/83/2 37/93/2 36/90/2 34/85/2
f 37/94/59 39/97/59 40/100/59 38/95/59
f 39/98/60 41/102/60 42/104/60 40/101/60
f 41/102/61 43/105/61 44/108/61 42/104/61
f 43/105/62 45/110/62 47/116/62 44/108/62
f 45/110/2 49/120/2 48/118/2 46/112/2
f 49/120/63 51/125/63 52/128/63 50/124/63
f 29/74/64 52/128/64 51/125/64 30/76/64
f 50/124/65 53/131/65 54/132/65 48/118/65
f 53/131/66 55/134/66 56/135/66 54/132/66
f 46/112/67 56/135/67 55/134/67 47/116/67
f 38/96/68 57/136/68 58/139/68 36/91/68
f 57/137/69 59/141/69 61/146/69 58/140/69
f 59/142/70 62/148/70 64/151/70 60/143/70
f 63/149/2 65/153/2 67/156/2 64/152/2
f 66/155/71 68/159/71 70/165/71 67/156/71
f 68/160/72 71/167/72 72/169/72 69/162/72
f 34/85/73 72/170/73 71/168/73 35/89/73
f 60/144/2 70/165/2 69/163/2 61/147/2
f 62/148/74 73/171/74 74/174/74 63/150/74
f 73/172/75 75/177/75 76/179/75 74/175/75
f 65/153/76 76/180/76 75/178/76 66/155/76
f 78/185/77 79/188/77 80/192/77 77/182/77
f 79/189/78 81/197/78 83/205/78 80/193/78
f 82/201/7 84/209/7 86/218/7 83/206/7
f 85/214/79 87/222/79 88/225/79 86/219/79
f 87/223/80 89/228/80 90/231/80 88/226/80
f 89/229/81 91/235/81 92/238/81 90/232/81
f 91/236/82 93/243/82 95/251/82 92/239/82
f 94/247/7 96/255/7 98/264/7 95/252/7
f 97/260/83 99/268/83 100/271/83 98/265/83
f 77/183/84 100/272/84 99/269/84 78/186/84
f 96/256/85 101/274/85 102/279/85 97/261/85
f 101/275/86 103/282/86 104/286/86 102/280/86
f 93/244/87 104/287/87 103/283/87 94/248/87
f 84/210/88 105/289/88 106/293/88 85/215/88
f 105/290/89 107/297/89 109/306/89 106/294/89
f 108/301/90 110/310/90 112/318/90 109/307/90
f 110/311/7 114/326/7 113/322/7 111/314/7
f 114/327/91 116/334/91 118/343/91 115/330/91
f 117/338/92 119/346/92 120/350/92 118/344/92
f 81/198/93 120/351/93 119/347/93 82/202/93
f 107/298/7 117/339/7 116/335/7 108/302/7
f 111/315/94 121/353/94 122/356/94 112/319/94
f 121/354/95 123/359/95 124/362/95 122/357/95
f 115/331/96 124/363/96 123/360/96 113/323/96
f 29/75/97 32/80/97 79/190/97 78/187/97
