# Blender 3.4.1
# www.blender.org
mtllib fireaxe.mtl
o fireaxe
v -0.012031 0.552778 -0.059578
v -0.012031 0.596097 -0.060338
v -0.012031 0.640937 -0.041338
v -0.012031 0.641697 0.034661
v 0.012599 0.552778 -0.059578
v 0.012599 0.596097 -0.060338
v 0.012599 0.640937 -0.041338
v 0.012599 0.641697 0.034661
v -0.018697 0.552018 -0.042098
v -0.018697 0.552778 -0.059578
v -0.018697 0.596097 -0.060338
v -0.000697 0.603697 -0.136337
v -0.004697 0.616617 -0.124937
v -0.010697 0.634857 -0.089217
v -0.014697 0.640937 -0.064138
v -0.018697 0.640937 -0.041338
v -0.018697 0.641697 0.034661
v -0.002031 0.668296 0.118259
v -0.002031 0.644737 0.125859
v -0.002031 0.627257 0.128139
v -0.002031 0.595337 0.129659
v -0.002031 0.559618 0.125859
v -0.002031 0.535298 0.119019
v -0.002031 0.530738 0.112179
v -0.002031 0.539858 0.100780
v -0.005364 0.548218 0.085580
v -0.018697 0.551258 0.033141
v 0.000284 -0.177655 0.007829
v 0.000284 -0.180821 0.014690
v 0.000284 0.530738 0.112179
v 0.000284 0.535298 0.120738
v 0.000284 0.640937 -0.041338
v 0.000284 -0.171849 0.050578
v 0.000284 0.539858 0.100780
v 0.000284 -0.164988 0.057439
v 0.000284 0.548218 0.085580
v 0.000284 0.641697 0.034661
v 0.000284 -0.112211 -0.011699
v 0.000284 -0.130155 -0.008004
v 0.000284 0.549738 0.068100
v 0.000284 0.641697 0.051380
v 0.000284 0.463859 -0.011699
v 0.000284 0.551258 0.033141
v 0.000284 0.644737 0.077980
v 0.000284 0.513259 -0.020058
v 0.000284 0.469939 0.027061
v 0.000284 0.651576 0.094700
v 0.000284 0.552018 -0.042098
v 0.000284 -0.075732 0.024021
v 0.000284 0.659176 0.107619
v 0.000284 0.552778 -0.059578
v 0.000284 -0.122851 0.035421
v 0.000284 0.668296 0.119978
v 0.000284 0.596097 -0.060338
v 0.000284 -0.155531 0.053660
v 0.000284 0.644737 0.127578
v 0.000284 0.603697 -0.136337
v 0.000284 0.627257 0.129858
v 0.000284 0.616617 -0.124937
v 0.000284 0.595337 0.131378
v 0.000284 0.634857 -0.089217
v 0.000284 0.559618 0.127578
v 0.000284 0.640937 -0.064138
v 0.019265 0.552018 -0.042098
v 0.019265 0.552778 -0.059578
v 0.019265 0.596097 -0.060338
v 0.001265 0.603697 -0.136337
v 0.005265 0.616617 -0.124937
v 0.011265 0.634857 -0.089217
v 0.015265 0.640937 -0.064138
v 0.019265 0.640937 -0.041338
v 0.019265 0.641697 0.034661
v 0.002599 0.668296 0.118259
v 0.002599 0.644737 0.125859
v 0.002599 0.627257 0.128139
v 0.002599 0.595337 0.129659
v 0.002599 0.559618 0.125859
v 0.002599 0.535298 0.119019
v 0.002599 0.530738 0.112179
v 0.002599 0.539858 0.100780
v 0.005932 0.548218 0.085580
v 0.019265 0.551258 0.033141
v -0.010364 0.634477 0.081400
v 0.010932 0.634477 0.081400
v 0.000284 0.643217 0.064680
v 0.000284 0.648157 0.086340
v 0.000284 0.655376 0.101160
v -0.009207 0.641697 0.043021
v 0.009775 0.641697 0.043021
v 0.006765 0.639607 0.103630
v -0.006197 0.639607 0.103630
v 0.005608 0.638847 0.073040
v -0.005040 0.638847 0.073040
v -0.002460 -0.177655 0.007829
v -0.012031 -0.170700 0.015599
v -0.002460 -0.180821 0.014690
v -0.012031 -0.170719 0.015639
v -0.002460 -0.171849 0.050578
v -0.012031 -0.163207 0.045685
v -0.002460 -0.164988 0.057439
v -0.012031 -0.162681 0.046211
v -0.012031 -0.127668 0.001255
v -0.002460 -0.130155 -0.008004
v -0.012031 -0.111236 -0.002128
v -0.002460 -0.112211 -0.011699
v -0.012031 0.464664 -0.002128
v -0.002460 0.463859 -0.011699
v -0.012031 0.516521 -0.010904
v -0.002460 0.513259 -0.020058
v -0.012031 0.542280 -0.025551
v -0.012031 0.552018 -0.042098
v -0.012031 0.551258 0.033141
v -0.012031 0.541791 0.022836
v -0.012031 0.470323 0.017492
v -0.002460 0.469939 0.027061
v -0.012031 -0.076847 0.014444
v -0.002460 -0.075732 0.024021
v -0.012031 -0.126373 0.026426
v -0.002460 -0.122851 0.035421
v -0.012031 -0.159655 0.045002
v -0.002460 -0.155531 0.053660
v 0.012599 -0.170700 0.015599
v 0.003028 -0.177655 0.007829
v 0.012599 -0.170719 0.015639
v 0.003028 -0.180821 0.014690
v 0.012599 -0.163207 0.045685
v 0.003028 -0.171849 0.050578
v 0.012599 -0.162681 0.046211
v 0.003028 -0.164988 0.057439
v 0.003028 -0.130155 -0.008004
v 0.012599 -0.127668 0.001255
v 0.003028 -0.112211 -0.011699
v 0.012599 -0.111236 -0.002128
v 0.003028 0.463859 -0.011699
v 0.012599 0.464664 -0.002128
v 0.003028 0.513259 -0.020058
v 0.012599 0.516521 -0.010904
v 0.012599 0.552018 -0.042098
v 0.012599 0.542280 -0.025551
v 0.012599 0.541791 0.022836
v 0.012599 0.551258 0.033141
v 0.003028 0.469939 0.027061
v 0.012599 0.470323 0.017492
v 0.003028 -0.075732 0.024021
v 0.012599 -0.076847 0.014444
v 0.003028 -0.122851 0.035421
v 0.012599 -0.126373 0.026426
v 0.003028 -0.155531 0.053660
v 0.012599 -0.159655 0.045002
v -0.008209 0.645496 -0.037516
v -0.012031 0.641699 -0.041338
v -0.008209 0.645496 0.031599
v -0.012031 0.641701 0.034662
v 0.008777 0.645496 -0.037516
v 0.012599 0.641699 -0.041338
v 0.008777 0.645496 0.031599
v 0.012599 0.641701 0.034662
v 0.000284 0.641698 -0.041338
v 0.000284 0.645496 -0.037516
v 0.000284 0.645496 0.031599
v 0.000284 0.641703 0.034662
vn -0.0000 -0.9080 -0.4191
vn -0.0000 1.0000 -0.0000
vn -0.0000 -0.9991 -0.0434
vn -0.0000 -0.1963 0.9805
vn 1.0000 -0.0000 -0.0000
vn -0.0000 0.3710 0.9286
vn -0.0000 0.2352 0.9720
vn -0.0000 -0.0000 -1.0000
vn -1.0000 -0.0000 -0.0000
vn -0.0000 -0.1669 -0.9860
vn -0.0000 -0.4943 -0.8693
vn -0.0000 0.4874 0.8732
vn -0.0000 -0.9999 -0.0101
vn -0.0000 -0.0175 -0.9998
vn -0.0000 -0.2017 -0.9795
vn -0.0000 0.6616 -0.7498
vn -0.0000 0.9718 -0.2356
vn 0.0205 -0.9981 -0.0579
vn -0.0000 -0.9701 0.2425
vn -0.0205 -0.9981 -0.0579
vn -0.0000 1.0000 -0.0100
vn -0.0000 0.8906 -0.4548
vn -0.0000 -0.0746 0.9972
vn 0.5771 0.2507 0.7772
vn -0.5771 0.2507 0.7772
vn 0.5929 0.1042 0.7985
vn 0.5957 0.0382 0.8023
vn 0.5940 -0.0851 0.8000
vn 0.5815 -0.2203 0.7831
vn -0.5815 -0.2203 0.7831
vn -0.5940 -0.0851 0.8000
vn -0.5957 0.0382 0.8023
vn -0.5929 0.1042 0.7985
vn -0.0000 -0.8762 -0.4819
vn -0.0000 -0.7809 -0.6247
vn 0.1859 -0.8454 0.5007
vn -0.1859 -0.8454 0.5007
vn -0.0000 -0.0056 1.0000
vn -0.9942 -0.0844 0.0665
vn 0.9942 -0.0844 0.0665
vn 0.9963 -0.0090 0.0850
vn -0.9963 -0.0090 0.0850
vn 0.9599 -0.1522 0.2353
vn -0.9599 -0.1522 0.2353
vn -0.9852 -0.0029 0.1714
vn 0.9852 -0.0029 0.1714
vn -0.0000 -1.0000 -0.0000
vn -0.7049 -0.7047 0.0805
vn -0.9671 -0.0894 -0.2380
vn -0.9793 0.0576 -0.1939
vn -0.9823 0.0730 -0.1723
vn -0.9820 0.0728 -0.1743
vn 0.9671 -0.0894 -0.2380
vn 0.9793 0.0576 -0.1939
vn 0.9823 0.0730 -0.1723
vn 0.9820 0.0728 -0.1743
vn 0.9842 0.0084 0.1768
vn -0.9842 0.0084 0.1768
vn -0.0995 -0.9886 0.1130
vn 0.0995 -0.9886 0.1130
vn -0.1568 0.9715 0.1780
vn -0.1568 -0.9715 -0.1780
vn -0.4776 -0.8659 -0.1485
vn 0.4776 -0.8659 -0.1485
vn -0.9836 0.0233 0.1790
vn 0.9836 0.0233 0.1790
vn 0.7049 -0.7047 0.0805
vn -0.0000 -0.7593 0.6508
vn -0.7748 0.6284 -0.0701
vn 0.7748 0.6284 -0.0701
vn -0.8827 0.4697 -0.0111
vn 0.8827 0.4697 -0.0111
vn 0.9944 0.0914 -0.0538
vn -0.9944 0.0914 -0.0538
vn -0.9843 -0.0541 -0.1678
vn 0.9843 -0.0541 -0.1678
vn -0.0000 -0.9950 -0.0995
vn -0.0000 -0.7071 0.7071
vn -0.7071 -0.2236 -0.6708
vn -0.7071 -0.6420 -0.2963
vn -0.7071 -0.6860 0.1715
vn -0.7071 -0.5000 0.5000
vn -0.7071 -0.1426 -0.6926
vn -0.7071 -0.0000 -0.7071
vn -0.7071 -0.1180 -0.6972
vn -0.8435 -0.3545 -0.4034
vn -0.8806 -0.0899 0.4652
vn -0.7071 -0.0039 0.7071
vn -0.7071 0.1663 0.6873
vn -0.7071 0.3446 0.6174
vn -0.7071 0.2624 0.6566
vn 0.7071 -0.2236 -0.6708
vn 0.7071 -0.6420 -0.2963
vn 0.7071 -0.6860 0.1715
vn 0.7071 -0.5000 0.5000
vn 0.7071 -0.1426 -0.6926
vn 0.7071 -0.0000 -0.7071
vn 0.7071 -0.1180 -0.6972
vn 0.8435 -0.3545 -0.4034
vn 0.8806 -0.0899 0.4652
vn 0.7071 -0.0039 0.7071
vn 0.7071 0.1663 0.6873
vn 0.7071 0.3446 0.6174
vn 0.7071 0.2624 0.6566
vn -0.0000 -0.3162 -0.9487
vn -0.7048 0.7094 -0.0000
vn 0.7048 0.7094 -0.0000
vn -0.0000 0.7093 -0.7049
vn 0.0001 0.6282 0.7781
vn -0.0001 0.6282 0.7781
vt 0.435673 0.361246
vt 0.247122 0.525086
vt 0.435673 0.416165
vt 0.453822 0.361246
vt 0.475366 0.361246
vt 0.444748 0.449690
vt 0.453822 0.458445
vt 0.475366 0.464701
vt 0.353013 0.476768
vt 0.402147 0.361246
vt 0.213597 0.525086
vt 0.402147 0.416165
vt 0.481534 0.464702
vt 0.453822 0.361246
vt 0.444748 0.416165
vt 0.353013 0.443243
vt 0.481534 0.361248
vt 0.453822 0.458445
vt 0.256197 0.505510
vt 0.264293 0.244750
vt 0.444748 0.361246
vt 0.256197 0.525086
vt 0.268851 0.268126
vt 0.444748 0.416165
vt 0.327317 0.260389
vt 0.307872 0.443243
vt 0.283370 0.361246
vt 0.352987 0.361246
vt 0.332374 0.361246
vt 0.288815 0.381960
vt 0.368057 0.343268
vt 0.296982 0.436208
vt 0.385363 0.291467
vt 0.302427 0.471076
vt 0.388459 0.256458
vt 0.307872 0.500126
vt 0.462897 0.361246
vt 0.383833 0.225747
vt 0.462897 0.458445
vt 0.441652 0.416165
vt 0.369489 0.123291
vt 0.492085 0.361246
vt 0.462897 0.497318
vt 0.365762 0.457433
vt 0.388459 0.005466
vt 0.462897 0.464197
vt 0.355209 0.000000
vt 0.462897 0.441804
vt 0.331219 0.000466
vt 0.462897 0.402629
vt 0.287944 0.004874
vt 0.349987 0.445222
vt 0.462897 0.362362
vt 0.240631 0.017212
vt 0.349987 0.470752
vt 0.209277 0.031337
vt 0.349987 0.481938
vt 0.318711 0.443243
vt 0.204522 0.041466
vt 0.318711 0.460630
vt 0.219103 0.054967
vt 0.238047 0.361246
vt 0.323248 0.479031
vt 0.233416 0.073720
vt 0.256197 0.419424
vt 0.248057 0.143625
vt 0.589160 0.007542
vt 0.589160 0.000000
vt 0.485269 0.418477
vt 0.346836 0.481938
vt 0.315560 0.443243
vt 0.346836 0.468772
vt 0.282035 0.500126
vt 0.444748 0.432928
vt 0.485269 0.466316
vt 0.315560 0.460630
vt 0.622685 0.000000
vt 0.485269 0.479197
vt 0.230359 0.361246
vt 0.315560 0.479031
vt 0.353013 0.460006
vt 0.441652 0.442002
vt 0.589160 0.100035
vt 0.589160 0.075534
vt 0.230359 0.380271
vt 0.422399 0.442003
vt 0.589160 0.825115
vt 0.230359 0.419424
vt 0.622685 0.872682
vt 0.323248 0.458329
vt 0.333467 0.453767
vt 0.364900 0.064462
vt 0.548837 0.296785
vt 0.589160 0.891625
vt 0.622685 0.779341
vt 0.554664 0.320674
vt 0.370726 0.040572
vt 0.589160 0.951834
vt 0.230359 0.505510
vt 0.622685 0.128483
vt 0.365762 0.476566
vt 0.378344 0.021644
vt 0.562281 0.339602
vt 0.418910 0.361246
vt 0.230359 0.525086
vt 0.622685 0.064708
vt 0.466048 0.496202
vt 0.362329 0.456000
vt 0.418910 0.416165
vt 0.333710 0.443243
vt 0.622685 0.013768
vt 0.466048 0.463081
vt 0.282035 0.361246
vt 0.333710 0.361246
vt 0.466048 0.440688
vt 0.282035 0.381960
vt 0.466048 0.401513
vt 0.282035 0.436208
vt 0.346836 0.443243
vt 0.466048 0.361246
vt 0.282035 0.471076
vt 0.204522 0.505510
vt 0.448231 0.116496
vt 0.204522 0.525086
vt 0.393073 0.361246
vt 0.452788 0.093120
vt 0.393073 0.416165
vt 0.511254 0.100857
vt 0.359547 0.443243
vt 0.280699 0.361246
vt 0.536925 0.000000
vt 0.335045 0.361246
vt 0.275254 0.381960
vt 0.551995 0.017978
vt 0.267087 0.436208
vt 0.569300 0.069779
vt 0.261642 0.471076
vt 0.572397 0.104789
vt 0.444748 0.361246
vt 0.256197 0.500126
vt 0.567771 0.135500
vt 0.444748 0.458445
vt 0.553427 0.237955
vt 0.441652 0.467840
vt 0.469199 0.497318
vt 0.359547 0.458470
vt 0.572397 0.355780
vt 0.469199 0.464197
vt 0.539147 0.361246
vt 0.469199 0.441804
vt 0.515156 0.360781
vt 0.469199 0.402629
vt 0.471882 0.356372
vt 0.469199 0.362362
vt 0.343685 0.445222
vt 0.424568 0.344034
vt 0.343685 0.470752
vt 0.393215 0.329909
vt 0.312409 0.443243
vt 0.343685 0.481938
vt 0.388459 0.319780
vt 0.312409 0.460630
vt 0.403041 0.306279
vt 0.222671 0.361246
vt 0.307872 0.479031
vt 0.417354 0.287526
vt 0.204522 0.419424
vt 0.431995 0.217621
vt 0.492085 0.418477
vt 0.393073 0.427508
vt 0.343685 0.443243
vt 0.350354 0.061878
vt 0.393073 0.456497
vt 0.333467 0.468854
vt 0.534292 0.299368
vt 0.333467 0.443243
vt 0.405981 0.442002
vt 0.343685 0.468854
vt 0.367813 0.052517
vt 0.551750 0.308729
vt 0.558473 0.330138
vt 0.374535 0.031108
vt 0.481533 0.374248
vt 0.432026 0.429084
vt 0.432026 0.454921
vt 0.536719 0.330307
vt 0.352782 0.030939
vt 0.399527 0.449250
vt 0.333467 0.456048
vt 0.399527 0.434755
vt 0.343685 0.456048
vt 0.182036 0.995268
vt 0.592895 0.007542
vt 0.170986 0.986328
vt 0.592895 0.000000
vt 0.481533 0.418477
vt 0.172904 1.000000
vt 0.170932 0.986356
vt 0.481533 0.466316
vt 0.123546 0.990030
vt 0.129609 0.978009
vt 0.618950 0.000000
vt 0.481533 0.479197
vt 0.113790 0.981127
vt 0.128861 0.977326
vt 0.187816 0.926923
vt 0.200614 0.929695
vt 0.592895 0.075534
vt 0.191395 0.904368
vt 0.592895 0.100035
vt 0.204522 0.905065
vt 0.155601 0.121267
vt 0.592895 0.825115
vt 0.168717 0.121732
vt 0.164311 0.050207
vt 0.592895 0.891625
vt 0.177015 0.054040
vt 0.182627 0.014270
vt 0.605923 0.951834
vt 0.247122 0.505510
vt 0.204522 0.000000
vt 0.605923 0.872682
vt 0.247122 0.419424
vt 0.102261 0.005709
vt 0.116862 0.017941
vt 0.128569 0.114790
vt 0.618950 0.779341
vt 0.115635 0.115873
vt 0.166723 0.858635
vt 0.618950 0.128483
vt 0.153684 0.857681
vt 0.153508 0.926725
vt 0.605923 0.066334
vt 0.141111 0.922461
vt 0.618950 0.064708
vt 0.605923 0.014455
vt 0.130317 0.973136
vt 0.618950 0.013768
vt 0.118341 0.968032
vt 0.068725 0.013672
vt 0.079775 0.004732
vt 0.585424 0.007542
vt 0.068671 0.013644
vt 0.585424 0.000000
vt 0.489004 0.418477
vt 0.070643 0.000000
vt 0.027348 0.021991
vt 0.489004 0.466316
vt 0.021285 0.009970
vt 0.026600 0.022674
vt 0.626421 0.000000
vt 0.489004 0.479197
vt 0.011529 0.018873
vt 0.098353 0.070305
vt 0.585424 0.075534
vt 0.085555 0.073078
vt 0.585424 0.100035
vt 0.102261 0.094935
vt 0.089134 0.095632
vt 0.585424 0.825115
vt 0.066456 0.878268
vt 0.053340 0.878733
vt 0.585424 0.891625
vt 0.074754 0.945960
vt 0.062050 0.949793
vt 0.572397 0.951834
vt 0.213597 0.505510
vt 0.102261 1.000000
vt 0.080366 0.985730
vt 0.014601 0.982059
vt 0.213597 0.419424
vt 0.639448 0.872682
vt 0.000000 0.994291
vt 0.626421 0.779341
vt 0.013374 0.884127
vt 0.026309 0.885210
vt 0.626421 0.128483
vt 0.051423 0.142319
vt 0.064462 0.141365
vt 0.038851 0.077539
vt 0.626421 0.064708
vt 0.051247 0.073275
vt 0.639448 0.066334
vt 0.626421 0.013768
vt 0.016080 0.031968
vt 0.639448 0.014455
vt 0.028056 0.026864
vt 0.469198 0.366489
vt 0.387871 0.367935
vt 0.474329 0.361257
vt 0.393073 0.361247
vt 0.443789 0.449690
vt 0.387871 0.456000
vt 0.470139 0.460564
vt 0.359547 0.471566
vt 0.475359 0.464702
vt 0.353018 0.476768
vt 0.475366 0.459460
vt 0.364749 0.367935
vt 0.443789 0.416165
vt 0.480496 0.464692
vt 0.359547 0.361247
vt 0.364749 0.456000
vt 0.476307 0.365385
vt 0.359547 0.448445
vt 0.481527 0.361246
vt 0.353018 0.443243
vt 0.376310 0.361246
vt 0.443790 0.432928
vt 0.376310 0.367935
vt 0.376310 0.456000
vt 0.359547 0.460006
vt 0.353020 0.460006
s 0
g fireaxe_Material.001
usemtl Material.001
f 28/67/1 123/242/1 125/244/1 29/68/1 96/195/1 94/193/1
f 160/311/2 156/303/2 154/299/2 159/310/2 150/289/2 152/293/2
f 138/267/3 5/11/3 65/124/3 64/122/3
f 161/313/4 37/81/4 8/16/4 157/307/4
f 157/306/5 8/17/5 7/13/5 155/301/5
f 35/77/6 129/251/6 148/284/6 55/111/6 121/238/6 100/202/6
f 52/106/7 146/281/7 144/277/7 49/100/7 117/230/7 119/235/7
f 42/87/8 134/260/8 132/257/8 38/83/8 105/210/8 107/213/8
f 95/194/9 97/198/9 99/201/9 101/205/9 120/237/9 118/232/9 116/229/9 114/226/9 113/225/9 110/218/9 108/215/9 106/212/9 104/209/9 102/206/9
f 45/94/10 136/263/10 134/260/10 42/87/10 107/213/10 109/216/10
f 48/98/11 138/266/11 136/263/11 45/94/11 109/216/11 111/219/11
f 55/111/12 148/284/12 146/281/12 52/106/12 119/235/12 121/238/12
f 141/271/13 138/267/13 64/122/13 82/167/13
f 122/240/5 131/256/5 133/259/5 135/262/5 137/265/5 139/269/5 140/270/5 143/276/5 145/279/5 147/282/5 149/287/5 128/250/5 126/247/5 124/243/5
f 1/1/14 10/21/14 11/24/14 2/3/14 54/109/14 51/104/14
f 38/83/15 132/257/15 130/255/15 39/84/15 103/208/15 105/210/15
f 63/121/2 15/34/2 16/36/2 32/73/2
f 59/116/16 68/133/16 67/130/16 57/113/16
f 63/121/17 61/118/17 14/32/17 15/34/17
f 36/79/18 26/62/18 27/65/18 112/223/18 43/88/18 40/85/18
f 59/116/16 57/113/16 12/27/16 13/30/16
f 29/69/19 125/245/19 127/248/19 33/75/19 98/199/19 96/196/19
f 51/104/14 54/109/14 6/12/14 66/127/14 65/125/14 5/10/14
f 141/271/20 82/167/20 81/164/20 36/79/20 40/85/20 43/88/20
f 48/99/3 51/105/3 5/11/3 138/267/3
f 7/14/21 8/18/21 72/142/21 71/139/21
f 32/73/2 71/140/2 70/137/2 63/121/2
f 59/116/22 61/118/22 69/135/22 68/133/22
f 1/2/3 111/220/3 9/19/3 10/22/3
f 46/95/23 142/274/23 141/272/23 43/89/23 112/222/23 115/227/23
f 4/7/21 3/4/21 16/37/21 17/39/21
f 111/220/3 1/2/3 51/105/3 48/99/3
f 59/116/22 13/30/22 14/32/22 61/118/22
f 111/220/13 112/223/13 27/65/13 9/19/13
f 32/74/8 158/309/8 155/300/8 7/15/8
f 153/296/9 151/290/9 3/5/9 4/8/9
f 153/297/4 4/9/4 37/81/4 161/313/4
f 63/121/17 70/137/17 69/135/17 61/118/17
f 73/145/24 53/107/24 56/112/24 74/148/24
f 18/43/25 19/46/25 56/112/25 53/107/25
f 74/148/26 56/112/26 58/115/26 75/150/26
f 75/150/27 58/115/27 60/117/27 76/152/27
f 76/152/28 60/117/28 62/120/28 77/154/28
f 77/155/29 62/119/29 31/72/29 78/157/29
f 22/52/30 23/55/30 31/72/30 62/119/30
f 21/50/31 22/53/31 62/120/31 60/117/31
f 20/48/32 21/50/32 60/117/32 58/115/32
f 19/46/33 20/48/33 58/115/33 56/112/33
f 80/162/34 34/76/34 36/80/34 81/165/34
f 79/159/35 30/71/35 34/76/35 80/162/35
f 78/157/36 31/72/36 30/70/36 79/160/36
f 23/55/37 24/57/37 30/70/37 31/72/37
f 24/58/35 25/60/35 34/76/35 30/71/35
f 25/60/34 26/63/34 36/80/34 34/76/34
f 49/100/38 144/277/38 142/274/38 46/95/38 115/227/38 117/230/38
f 79/161/5 80/163/5 78/158/5
f 24/59/9 23/56/9 25/61/9
f 22/54/39 26/64/39 25/61/39 23/56/39
f 77/156/40 78/158/40 80/163/40 81/166/40
f 77/156/41 81/166/41 76/153/41
f 22/54/42 21/51/42 26/64/42
f 81/166/43 82/168/43 76/153/43
f 26/64/44 21/51/44 27/66/44
f 27/66/45 21/51/45 17/41/45
f 82/168/46 72/143/46 76/153/46
f 37/82/47 72/144/47 89/185/47 41/86/47
f 41/86/47 88/184/47 17/40/47 37/82/47
f 85/176/48 92/189/48 44/90/48
f 27/66/9 17/41/9 16/38/9 9/20/9
f 82/168/5 64/123/5 71/141/5 72/143/5
f 64/123/5 65/126/5 66/128/5 71/141/5
f 9/20/9 16/38/9 11/25/9 10/23/9
f 12/28/49 11/25/49 13/31/49
f 13/31/50 11/25/50 14/33/50
f 16/38/51 15/35/51 11/25/51
f 15/35/52 14/33/52 11/25/52
f 67/131/53 68/134/53 66/128/53
f 68/134/54 69/136/54 66/128/54
f 71/141/55 66/128/55 70/138/55
f 70/138/56 66/128/56 69/136/56
f 75/151/57 76/153/57 72/143/57 84/175/57
f 20/49/58 83/172/58 17/41/58 21/51/58
f 41/86/59 85/177/59 88/184/59
f 41/86/60 89/185/60 85/177/60
f 83/169/61 88/183/61 17/42/61
f 72/144/62 84/173/62 89/185/62
f 89/185/63 84/173/63 92/188/63 85/177/63
f 88/184/64 85/177/64 93/190/64 83/170/64
f 20/49/65 19/47/65 91/187/65 83/172/65
f 75/151/66 84/175/66 90/186/66 74/149/66
f 84/174/48 44/90/48 92/189/48
f 93/191/67 85/178/67 44/91/67
f 18/44/68 50/101/68 73/146/68
f 18/44/47 73/146/47 53/108/47
f 44/91/67 83/171/67 93/191/67
f 44/92/69 83/172/69 91/187/69 86/179/69
f 44/93/70 86/180/70 90/186/70 84/175/70
f 86/179/71 91/187/71 19/47/71 47/97/71
f 90/186/72 86/180/72 47/96/72 74/149/72
f 47/96/73 87/181/73 74/149/73
f 47/97/74 19/47/74 87/182/74
f 87/181/73 50/103/73 74/149/73
f 87/182/74 19/47/74 50/102/74
f 18/45/75 50/102/75 19/47/75
f 73/147/76 74/149/76 50/103/76
f 57/114/77 54/110/77 11/26/77 12/29/77
f 66/129/77 54/110/77 57/114/77 67/132/77
f 33/75/78 127/248/78 129/252/78 35/78/78 100/203/78 98/199/78
f 95/194/79 102/206/79 103/207/79 94/192/79
f 97/198/80 95/194/80 94/192/80 96/197/80
f 99/201/81 97/198/81 96/197/81 98/200/81
f 101/205/82 99/201/82 98/200/82 100/204/82
f 102/206/83 104/209/83 105/211/83 103/207/83
f 104/209/84 106/212/84 107/214/84 105/211/84
f 106/212/85 108/215/85 109/217/85 107/214/85
f 108/215/86 110/218/86 111/221/86 109/217/86
f 113/225/87 114/226/87 115/228/87 112/224/87
f 114/226/88 116/229/88 117/231/88 115/228/88
f 116/229/89 118/232/89 119/234/89 117/231/89
f 118/233/90 120/236/90 121/238/90 119/235/90
f 110/218/9 113/225/9 112/224/9 111/221/9
f 100/204/91 121/239/91 120/237/91 101/205/91
f 123/241/92 130/254/92 131/256/92 122/240/92
f 125/246/93 123/241/93 122/240/93 124/243/93
f 127/249/94 125/246/94 124/243/94 126/247/94
f 129/253/95 127/249/95 126/247/95 128/250/95
f 130/254/96 132/258/96 133/259/96 131/256/96
f 132/258/97 134/261/97 135/262/97 133/259/97
f 134/261/98 136/264/98 137/265/98 135/262/98
f 136/264/99 138/268/99 139/269/99 137/265/99
f 141/273/100 142/275/100 143/276/100 140/270/100
f 142/275/101 144/278/101 145/279/101 143/276/101
f 144/278/102 146/280/102 147/282/102 145/279/102
f 146/281/103 148/284/103 149/286/103 147/283/103
f 138/268/5 141/273/5 140/270/5 139/269/5
f 128/250/104 149/287/104 148/285/104 129/253/104
f 39/84/105 130/255/105 123/242/105 28/67/105 94/193/105 103/208/105
f 151/290/106 153/296/106 152/294/106 150/288/106
f 154/298/107 156/304/107 157/306/107 155/301/107
f 159/310/108 154/299/108 155/302/108 158/308/108
f 161/313/109 157/307/109 156/305/109 160/312/109
f 150/289/108 159/310/108 158/308/108 151/291/108
f 153/297/110 161/313/110 160/312/110 152/295/110
f 3/6/8 151/292/8 158/309/8 32/74/8
