# Blender 3.4.1
# www.blender.org
mtllib Pyro.mtl
o Pyro
v 0.143791 0.032445 -0.130854
v 0.143791 0.032445 0.144310
v -0.142779 0.032445 -0.130854
v -0.002658 0.319014 -0.054964
v -0.142779 0.032445 0.144310
v -0.142779 0.016092 -0.130854
v -0.142779 0.016092 0.155715
v 0.143791 0.016092 -0.130854
v 0.143791 0.016092 0.155715
v -0.142779 0.016092 0.167392
v 0.143791 0.016092 0.167392
v -0.154455 0.016092 -0.130854
v -0.154455 0.016092 0.155715
v 0.155467 0.016092 0.155715
v 0.155467 0.016092 -0.130854
v 0.143791 0.016092 -0.142531
v -0.142779 0.016092 -0.142531
v 0.070566 0.175729 0.044673
v -0.072719 0.175728 0.044674
v 0.084977 0.147530 0.064282
v -0.086507 0.147529 0.064282
v 0.070565 0.175731 -0.092909
v 0.084976 0.147532 -0.100376
v -0.086508 0.147528 -0.100377
v -0.072720 0.175727 -0.092910
vn -0.0000 0.5709 0.8210
vn -0.8984 0.4393 -0.0000
vn -0.0000 -1.0000 -0.0000
vn 0.8905 0.4551 -0.0000
vn -0.0000 0.2560 -0.9667
vn -0.0000 -0.0000 -1.0000
vn 1.0000 -0.0000 -0.0000
vn -0.0000 0.8160 0.5781
vn -1.0000 -0.0000 -0.0000
vn -0.8138 0.5811 -0.0000
vn -0.0000 0.5721 0.8202
vn 0.8138 0.5811 -0.0000
vn -0.0000 0.5811 -0.8138
vn 0.6312 0.4507 -0.6312
vn -0.6312 0.4507 -0.6312
vn -0.0000 1.0000 -0.0000
vn 0.5005 -0.7064 -0.5005
vn -0.5005 -0.7064 -0.5005
vt 0.048714 0.665801
vt 0.046024 0.663326
vt 0.049260 0.701910
vt 0.054541 0.724265
vt 0.052045 0.703650
vt 0.048084 0.656475
vt 0.048652 0.665801
vt 0.048559 0.666041
vt 0.052232 0.665446
vt 0.048809 0.665066
vt 0.048574 0.665846
vt 0.052261 0.701179
vt 0.051121 0.724265
vt 0.049025 0.662595
vt 0.057954 0.663728
vt 0.052045 0.699162
vt 0.055040 0.703890
vt 0.052793 0.720737
vt 0.055040 0.699429
vt 0.048791 0.665941
vt 0.048601 0.665609
vt 0.048740 0.665334
vt 0.048084 0.670668
vt 0.051804 0.660845
vt 0.048462 0.665691
vt 0.048927 0.662438
vt 0.048791 0.666080
vt 0.048948 0.668866
vt 0.048714 0.665725
vt 0.048601 0.665473
vt 0.052368 0.668866
vt 0.048714 0.665609
vt 0.045926 0.663482
vt 0.048948 0.665446
vt 0.048574 0.666016
vt 0.048462 0.665946
vt 0.052368 0.665446
vt 0.048740 0.665609
vt 0.048601 0.665334
vt 0.052507 0.668866
vt 0.046941 0.670668
vt 0.048652 0.666132
vt 0.052507 0.665446
vt 0.046941 0.656475
vt 0.048574 0.665609
vt 0.048791 0.665941
vt 0.048948 0.669005
vt 0.048903 0.662400
vt 0.051797 0.660578
vt 0.048601 0.665470
vt 0.048462 0.665473
vt 0.052368 0.669005
vt 0.048559 0.665846
vt 0.052368 0.665306
vt 0.048802 0.665334
vt 0.048574 0.665609
vt 0.048948 0.665306
vt 0.045902 0.663521
vt 0.045808 0.663408
vt 0.048809 0.665446
vt 0.054541 0.724483
vt 0.048809 0.662513
vt 0.048652 0.666080
vt 0.048809 0.668866
vt 0.051121 0.724483
vt 0.053019 0.660102
vt 0.052045 0.701406
vt 0.511727 0.366482
vt 0.522258 0.467993
vt 0.053019 0.667198
vt 0.522259 0.309297
vt 0.055040 0.701660
vt 0.514923 0.339749
vt 0.511727 0.350536
vt 0.052048 0.659388
vt 0.052045 0.701848
vt 0.543976 0.483953
vt 0.514923 0.355601
vt 0.052048 0.667881
vt 0.055040 0.701220
vt 0.543977 0.294025
vt 0.050652 0.700536
vt 0.562002 0.397893
vt 0.053667 0.722501
vt 0.050378 0.700806
vt 0.053839 0.722848
vt 0.053377 0.702268
vt 0.051792 0.722848
vt 0.053650 0.702535
vt 0.565083 0.308154
vt 0.051957 0.722501
s 0
g off
g Pyro_Material
usemtl Material
f 20/75/1 5/23/1 2/6/1
f 21/80/2 3/12/2 5/19/2
f 9/37/3 10/40/3 7/31/3
f 1/3/4 20/76/4 2/5/4
f 22/84/5 23/86/5 24/88/5
f 8/34/3 7/31/3 6/28/3
f 7/31/3 12/47/3 6/28/3
f 8/32/6 1/1/6 15/56/6
f 1/2/7 8/33/7 16/59/7
f 5/23/8 11/44/8 2/6/8
f 9/35/7 2/7/7 11/42/7
f 5/20/9 7/29/9 10/38/9
f 5/24/10 12/48/10 13/49/10
f 3/11/6 6/25/6 12/45/6
f 7/30/11 5/21/11 13/51/11
f 2/8/11 9/36/11 14/53/11
f 8/34/3 14/54/3 9/37/3
f 2/10/12 15/58/12 1/2/12
f 6/28/3 16/60/3 8/34/3
f 6/26/9 3/14/9 17/62/9
f 1/4/13 17/65/13 3/13/13
f 8/34/3 16/60/3 15/57/3
f 16/59/14 1/2/14 15/58/14
f 3/14/15 17/62/15 12/48/15
f 6/27/16 17/63/16 12/46/16
f 13/50/17 5/22/17 10/38/17
f 7/30/16 13/51/16 10/39/16
f 2/9/18 14/54/18 11/43/18
f 9/37/3 14/54/3 11/43/3
f 19/70/1 18/66/1 4/15/1
f 21/81/1 18/69/1 19/71/1
f 18/67/4 22/82/4 4/16/4
f 20/76/4 23/85/4 22/82/4
f 24/87/2 21/80/2 25/89/2
f 25/89/2 19/72/2 4/17/2
f 25/90/2 21/78/2 19/73/2
f 22/83/4 18/68/4 20/74/4
f 20/75/1 21/79/1 5/23/1
f 21/80/2 24/87/2 3/12/2
f 9/37/3 11/43/3 10/40/3
f 1/3/4 23/85/4 20/76/4
f 1/4/5 3/13/5 23/86/5
f 3/13/5 24/88/5 23/86/5
f 24/88/5 25/91/5 22/84/5
f 25/91/5 4/18/5 22/84/5
f 8/34/3 9/37/3 7/31/3
f 7/31/3 13/52/3 12/47/3
f 5/23/8 10/41/8 11/44/8
f 5/24/10 3/14/10 12/48/10
f 8/34/3 15/57/3 14/54/3
f 2/10/12 14/55/12 15/58/12
f 6/28/3 17/64/3 16/60/3
f 1/4/13 16/61/13 17/65/13
f 21/81/1 20/77/1 18/69/1
